<svg t="1617961011545" viewBox="0 0 1024 1024" version="1.1" xmlns="http://www.w3.org/2000/svg" p-id="810" width="200" height="200"><script xmlns="">(function e(){function e(){const e=[];return{paramsArr:e,theOnlyOneHandler:n=&gt;{const t=n.data;if("string"!=typeof t||!t.startsWith(r))for(let t=e.length-1;t&gt;=0;t--){const{handler:r,options:o}=e[t];"function"==typeof r?r.call(window,n):r.handleEvent(n),"object"==typeof o&amp;&amp;o.once&amp;&amp;e.splice(t,1)}}}}const n=e(),t=e(),r="greetings from hcfy:";let o=null;const s=e=&gt;{if(n.theOnlyOneHandler(e),o){const n=e.data;if("string"==typeof n&amp;&amp;n.startsWith(r))return;o.call(window,e)}};window.addEventListener("message",s),window.addEventListener("message",t.theOnlyOneHandler,!0);const i=window.addEventListener,a=window.removeEventListener;window.addEventListener=function(e,r,o){if("message"!==e)return i.call(window,e,r,o);const s=("object"==typeof o?o.capture:o)?t.paramsArr:n.paramsArr;if(s.some((e=&gt;e.handler===r)))return;const a={handler:r,options:o};s.push(a),"object"==typeof o&amp;&amp;o.signal&amp;&amp;o.signal.addEventListener("abort",(()=&gt;{const e=s.indexOf(a);e&gt;=0&amp;&amp;s.splice(e,1)}))},window.removeEventListener=function(e,r,o){if("message"!==e)return a.call(window,e,r,o);const s=("object"==typeof o?o.capture:o)?t.paramsArr:n.paramsArr,i=s.findIndex((e=&gt;e.handler===r));i&gt;=0&amp;&amp;s.splice(i,1)};const d=Object.getOwnPropertyDescriptor(window,"onmessage")||{configurable:!0,enumerable:!0,value:null};return Object.defineProperty(window,"onmessage",{enumerable:!0,configurable:!0,get:()=&gt;o,set(e){o="function"==typeof e?e:null}}),()=&gt;{window.addEventListener=i,window.removeEventListener=a,window.removeEventListener("message",s),window.removeEventListener("message",t.theOnlyOneHandler,!0),n.paramsArr.forEach((({handler:e,options:n})=&gt;{window.addEventListener("message",e,n)})),t.paramsArr.forEach((({handler:e,options:n})=&gt;{window.addEventListener("message",e,n)})),Object.defineProperty(window,"onmessage",d),window.onmessage=o}})()</script><path d="M306.005333 117.632L444.330667 256h135.296l138.368-138.325333a42.666667 42.666667 0 0 1 60.373333 60.373333L700.330667 256H789.333333A149.333333 149.333333 0 0 1 938.666667 405.333333v341.333334a149.333333 149.333333 0 0 1-149.333334 149.333333h-554.666666A149.333333 149.333333 0 0 1 85.333333 746.666667v-341.333334A149.333333 149.333333 0 0 1 234.666667 256h88.96L245.632 177.962667a42.666667 42.666667 0 0 1 60.373333-60.373334zM789.333333 341.333333h-554.666666a64 64 0 0 0-63.701334 57.856L170.666667 405.333333v341.333334a64 64 0 0 0 57.856 63.701333L234.666667 810.666667h554.666666a64 64 0 0 0 63.701334-57.856L853.333333 746.666667v-341.333334A64 64 0 0 0 789.333333 341.333333zM341.333333 469.333333a42.666667 42.666667 0 0 1 42.666667 42.666667v85.333333a42.666667 42.666667 0 0 1-85.333333 0v-85.333333a42.666667 42.666667 0 0 1 42.666666-42.666667z m341.333334 0a42.666667 42.666667 0 0 1 42.666666 42.666667v85.333333a42.666667 42.666667 0 0 1-85.333333 0v-85.333333a42.666667 42.666667 0 0 1 42.666667-42.666667z" p-id="811" fill=""/></svg>